<svg viewBox="0 0 360 360">
<path d="M347.7,100.039c-4.91,2.714-9.928,5.252-14.71,8.176c-10.795,6.603-23.053,8.863-34.998,12.002
  c-17.774,4.671-35.243,10.184-52.356,16.93c-5.221,2.058-11.016,2.673-16.56,3.893c-7.107,1.564-14.368,2.606-21.313,4.702
  c-14.821,4.474-29.963,7.352-45.129,10.232c-8.581,1.63-17.076,3.706-25.643,5.419c-6.126,1.226-12.288,2.299-18.465,3.234
  c-9.496,1.438-19.021,2.692-28.531,4.039c-3.849,0.545-7.693,1.127-12.059,1.769c-0.264-5.281-0.663-10.032-0.712-14.787
  c-0.185-18.08-0.31-36.161-0.357-54.242c-0.045-17.051,0.052-34.102,0.041-51.152c-0.001-1.882-0.333-3.761-0.465-5.645
  c-0.316-4.501-0.618-9.002-0.899-13.505c-0.148-2.367,1.27-3.642,3.37-3.741c2.885-0.135,5.974-0.437,8.653,0.384
  c9.876,3.025,19.627,6.464,29.407,9.798c1.371,0.467,2.766,1.039,3.948,1.855c7.694,5.311,16.317,7.24,25.517,7.931
  c5.168,0.388,10.271,1.979,15.342,3.268c12.027,3.058,23.496,7.747,35.067,12.147c11.295,4.295,22.645,8.446,34.007,12.56
  c2.311,0.836,4.769,1.294,7.186,1.803c7.268,1.531,14.545,3.019,21.826,4.489c3.423,0.691,6.893,1.17,10.286,1.979
  c5.376,1.282,10.658,2.988,16.064,4.111c13.546,2.815,27.123,5.493,40.724,8.03c4.282,0.799,8.695,0.872,13.02,1.477
  c2.558,0.358,5.061,1.108,7.588,1.682C347.599,99.264,347.649,99.652,347.7,100.039z"/>
<path d="M79.141,11.653c0,3.04,0.291,5.217-0.052,7.289c-1.327,8.009-0.881,16.002,0.161,23.955
  c1.584,12.088,1.228,24.18-0.015,36.216c-0.862,8.351-0.25,16.591,0.309,24.867c1.07,15.844,2.878,31.655,2.189,47.576
  c-0.214,4.946-0.563,9.892-1.032,14.82c-0.858,9.024-1.126,18.024,0.113,27.042c0.336,2.443,0.287,4.945,0.319,7.422
  c0.284,21.712,0.583,43.423,0.797,65.135c0.101,10.203-0.078,20.409,0.058,30.611c0.149,11.22,0.526,22.438,0.774,33.657
  c0.035,1.6-0.056,3.207-0.17,4.804c-0.185,2.609-1.305,4.728-3.421,6.318c-2.078,1.562-4.123,3.167-6.686,5.141
  c-0.282-1.327-0.622-2.189-0.626-3.052c-0.044-9.314-0.003-18.628-0.05-27.942c-0.048-9.475-0.124-18.951-0.267-28.426
  c-0.328-21.715-0.723-43.429-1.046-65.144c-0.056-3.786,0.234-7.579,0.138-11.363c-0.129-5.088-0.39-10.176-0.748-15.253
  c-0.69-9.785,0.38-19.494,0.867-29.243c0.552-11.042,0.662-22.134,0.319-33.184c-0.344-11.062-1.824-22.089-2.166-33.151
  c-0.251-8.132,0.234-16.322,0.923-24.44c0.868-10.241,0.366-20.387-1.075-30.504c-0.812-5.706-0.439-11.336,0.261-16.988
  c0.143-1.157,0.577-2.337,0.45-3.458C68.66,17.265,74.408,15.464,79.141,11.653z"/>
<path fill="#FFFFFF" stroke="#FFFFFF" stroke-width="0.5" stroke-miterlimit="10" d="M112.321,104.076
  c-0.088-0.032-0.177-0.064-0.265-0.096c0.15-6.549,0.319-13.098,0.444-19.648c0.126-6.572,0.207-13.145,0.31-19.876
  c-0.684,0.434-1.33,0.84-1.97,1.256c-0.055,0.036-0.085,0.129-0.101,0.201c-0.223,1.043-0.531,2.077-0.64,3.132
  c-0.15,1.456-0.154,2.926-0.21,4.391c-0.128,3.335-0.299,6.669-0.362,10.005c-0.077,4.119-0.043,8.24-0.093,12.359
  c-0.044,3.662-0.175,7.324-0.2,10.986c-0.023,3.471,0.054,6.942,0.063,10.413c0.004,1.583-0.058,3.166-0.076,4.75
  c-0.043,3.774-0.081,7.549-0.107,11.323c-0.001,0.213,0.082,0.577,0.196,0.607c0.229,0.061,0.563,0.016,0.753-0.122
  c0.49-0.356,0.947-0.764,1.372-1.196c0.239-0.243,0.549-0.572,0.555-0.867c0.076-3.94,0.107-7.882,0.141-11.823
  c0.01-1.199-0.029-2.398,0-3.596c0.026-1.101,0.17-2.201,0.161-3.301c-0.013-1.828-0.109-3.654-0.163-5.482
  c-0.006-0.189,0.033-0.38,0.067-0.741c0.587,0.794,1.017,1.473,1.54,2.07c3.011,3.435,6.013,6.879,9.082,10.262
  c1.929,2.127,3.921,4.203,5.974,6.211c2.216,2.168,4.54,4.226,6.811,6.338c1.112,1.035,2.218,2.077,3.31,3.134
  c0.241,0.234,0.433,0.296,0.665,0.04c0.28-0.308,0.531-0.644,0.826-0.935c1.196-1.182,1.16-1.342-0.041-2.378
  c-1.367-1.18-2.666-2.438-3.997-3.659c-1.473-1.351-2.991-2.655-4.412-4.058c-1.678-1.657-3.281-3.392-4.904-5.105
  c-1.886-1.99-3.827-3.934-5.623-6.003c-2.457-2.83-4.799-5.761-7.198-8.642c-0.266-0.32-0.331-0.593-0.085-0.968
  c0.792-1.21,1.516-2.466,2.335-3.657c1.554-2.259,3.188-4.464,4.728-6.732c1.433-2.111,2.843-4.241,4.166-6.422
  c2.033-3.353,3.988-6.754,5.966-10.141c1.488-2.548,2.965-5.101,4.434-7.66c0.343-0.598,0.634-1.226,0.949-1.84
  c-0.052-0.037-0.104-0.073-0.157-0.11c-0.672,0.294-1.282,0.677-1.673,1.338c-1.914,3.227-3.836,6.448-5.73,9.687
  c-2.018,3.452-4.071,6.887-5.99,10.394c-1.599,2.921-3.683,5.501-5.508,8.261c-1.416,2.143-2.83,4.288-4.257,6.425
  C113.071,103.109,112.685,103.585,112.321,104.076z"/>
<path fill="#FFFFFF" stroke="#FFFFFF" stroke-width="0.5" stroke-miterlimit="10" d="M145.726,100.903
  c-2.231,0.168-4.426,0.341-6.623,0.493c-0.357,0.025-0.498,0.147-0.462,0.509c0.167,1.717,0.336,3.434,0.478,5.153
  c0.12,1.459,0.212,2.92,0.29,4.382c0.008,0.153-0.132,0.347-0.256,0.468c-0.475,0.464-0.965,0.914-1.463,1.353
  c-0.369,0.325-0.793,0.186-0.933-0.292c-0.031-0.106-0.05-0.218-0.059-0.328c-0.265-3.124-0.529-6.248-0.789-9.372
  c-0.043-0.514-0.068-1.029-0.107-1.632c-2.395,0.384-4.748,0.597-7.106,0.29c-0.012-0.09-0.025-0.18-0.037-0.271
  c0.557-0.123,1.108-0.306,1.672-0.358c1.678-0.156,3.36-0.264,5.04-0.384c0.396-0.028,0.447-0.254,0.448-0.6
  c0.005-2.487,0.075-4.975,0.032-7.461c-0.022-1.282,0.223-2.321,1.48-2.92c0.326-0.155,0.601-0.416,1.02-0.713
  c0.074,0.353,0.168,0.59,0.167,0.826c-0.014,2.375-0.053,4.749-0.065,7.124c-0.005,0.946,0.057,1.892,0.055,2.838
  c-0.001,0.447,0.126,0.626,0.607,0.575c1.623-0.172,3.25-0.311,4.875-0.46c0.351-0.032,0.702-0.073,1.053-0.082
  C145.831,100.022,145.838,100.037,145.726,100.903z"/>
<path fill="#FFFFFF" stroke="#FFFFFF" stroke-width="0.5" stroke-miterlimit="10" d="M162.334,66.457
  c-0.899,0.474-1.658,0.869-2.408,1.28c-0.068,0.037-0.108,0.174-0.116,0.269c-0.156,1.861-0.389,3.721-0.435,5.586
  c-0.072,2.869-0.058,5.743-0.003,8.613c0.08,4.134,0.231,8.266,0.349,12.4c0.013,0.458,0.011,0.916,0.017,1.435
  c-0.549-0.04-1.016-0.046-1.473-0.114c-0.588-0.087-1.036,0.131-1.453,0.515c-0.558,0.515-1.187,0.961-1.696,1.518
  c-0.612,0.67-1.236,1.369-1.665,2.159c-0.629,1.16,0.271,2.546,1.231,3.267c1.332,1.001,2.863,1.211,4.472,1.089
  c0.148-0.011,0.299,0.005,0.47,0.009c0.01,0.142,0.02,0.242,0.023,0.342c0.045,1.764,0.072,3.528,0.136,5.291
  c0.094,2.61,0.232,5.219,0.317,7.829c0.089,2.731,0.126,5.464,0.209,8.196c0.024,0.798,0.101,1.589-0.344,2.32
  c0.024,0.048,0.048,0.096,0.072,0.143c0.222-0.035,0.473-0.016,0.66-0.116c0.592-0.315,1.154-0.685,1.739-1.013
  c0.492-0.276,0.691-0.682,0.668-1.237c-0.065-1.537-0.125-3.074-0.169-4.611c-0.095-3.37-0.173-6.74-0.267-10.11
  c-0.073-2.593-0.162-5.185-0.241-7.778c-0.012-0.384,1.203-1.312,1.569-1.206c0.048,0.014,0.096,0.045,0.131,0.081
  c0.359,0.368,0.774,0.698,1.061,1.116c0.711,1.034,1.359,2.111,2.039,3.167c0.389,0.605,0.818,1.187,1.18,1.807
  c0.403,0.692,0.716,1.438,1.13,2.123c0.455,0.752,0.966,1.471,1.477,2.187c0.983,1.375,2,2.725,2.97,4.108
  c0.711,1.014,1.322,2.099,2.059,3.091c1.344,1.81,2.702,3.615,4.146,5.345c0.981,1.175,2.031,2.324,3.208,3.294
  c1.379,1.136,2.886,2.137,4.422,3.056c0.939,0.561,2.07,0.773,3.139,0.277c1.183-0.549,2.37-1.121,3.458-1.833
  c0.579-0.378,0.976-1.053,1.399-1.635c0.102-0.14-0.019-0.442-0.037-0.669c-0.175,0.059-0.354,0.11-0.524,0.181
  c-0.11,0.046-0.217,0.11-0.309,0.186c-0.53,0.434-1.112,0.824-1.565,1.329c-0.332,0.369-0.65,0.635-1.141,0.712
  c-0.81,0.127-1.568-0.073-2.249-0.456c-1.865-1.05-3.709-2.151-5.168-3.752c-1.346-1.478-2.674-2.975-3.934-4.527
  c-1.163-1.433-2.251-2.929-3.321-4.433c-1.119-1.574-2.167-3.199-3.265-4.789c-1.031-1.493-2.132-2.939-3.122-4.457
  c-1.558-2.391-2.767-5.006-4.66-7.278c1.706-1.41,3.477-2.817,5.18-4.301c0.997-0.869,1.979-1.788,2.803-2.817
  c1.202-1.501,2.099-3.202,2.652-5.062c0.526-1.767,0.822-3.581,0.84-5.416c0.017-1.739-0.424-3.434-0.973-5.07
  c-0.681-2.027-1.487-4.002-2.76-5.768c-0.875-1.214-1.982-1.993-3.403-2.355c-1.338-0.341-2.677-0.682-4.027-0.966
  c-0.975-0.205-1.965-0.362-2.956-0.454c-0.479-0.045-0.976,0.108-1.51,0.177C162.356,67.967,162.346,67.292,162.334,66.457z
   M163.366,101.804c-0.37,0.169-0.614,0.281-0.966,0.442c-0.006-0.447-0.011-0.807-0.017-1.167c0.045-0.028,0.091-0.056,0.136-0.084
  C162.775,101.238,163.03,101.483,163.366,101.804z M159.686,101.415c-0.082,1.039-0.157,1.086-1.15,0.765l-2.144-4.253
  c0.661-0.095,1.413-0.089,2.028,0.138c1.258,0.465,1.23,0.538,1.238,1.901C159.662,100.449,159.677,100.932,159.686,101.415z
   M163.072,70.354c0.684,0.081,1.37,0.196,2.037,0.369c1.354,0.35,2.693,0.763,4.045,1.124c1.357,0.363,2.204,1.317,2.886,2.452
  c1.254,2.087,2.143,4.327,2.766,6.68c0.447,1.689,0.679,3.388,0.412,5.065c-0.107,2.081-0.627,4.013-1.502,5.803
  c-0.629,1.288-1.503,2.471-2.364,3.629c-1.284,1.727-3.181,2.788-4.77,4.186c-0.715,0.629-0.709,0.57-1.407-0.106
  c-0.814-0.789-1.707-1.496-2.519-2.286c-0.176-0.172-0.208-0.547-0.214-0.83c-0.037-1.779-0.034-3.559-0.071-5.338
  c-0.056-2.679-0.141-5.357-0.198-8.035c-0.053-2.471-0.1-4.941-0.119-7.413c-0.012-1.502,0.008-3.004,0.061-4.505
  C162.142,70.377,162.297,70.263,163.072,70.354z"/>
</svg>
