<svg version="1.1" viewBox="0 0 256 256" enable-background="new 0 0 256 256">
<circle cx="128" cy="128.188" r="126.095"/>
<path fill="#FFFFFF" d="M69.126,134.549c-0.152-0.055-0.305-0.111-0.457-0.166c0.259-11.297,0.551-22.594,0.767-33.891
  c0.217-11.337,0.357-22.675,0.535-34.284c-1.179,0.748-2.294,1.449-3.398,2.166c-0.094,0.061-0.147,0.223-0.174,0.347
  c-0.385,1.798-0.917,3.582-1.104,5.402c-0.258,2.511-0.266,5.048-0.363,7.574c-0.221,5.752-0.516,11.503-0.624,17.258
  c-0.133,7.105-0.074,14.213-0.16,21.319c-0.077,6.317-0.303,12.633-0.345,18.95c-0.04,5.987,0.094,11.974,0.109,17.961
  c0.007,2.731-0.101,5.462-0.132,8.193c-0.074,6.51-0.14,13.021-0.185,19.531c-0.003,0.367,0.142,0.996,0.338,1.048
  c0.395,0.105,0.97,0.028,1.299-0.21c0.844-0.613,1.634-1.318,2.367-2.063c0.413-0.419,0.948-0.986,0.958-1.495
  c0.131-6.797,0.185-13.595,0.243-20.393c0.018-2.068-0.05-4.137-0.001-6.203c0.045-1.899,0.292-3.797,0.279-5.694
  c-0.023-3.152-0.187-6.304-0.281-9.456c-0.01-0.326,0.057-0.655,0.116-1.277c1.012,1.37,1.754,2.541,2.657,3.571
  c5.194,5.925,10.372,11.865,15.665,17.701c3.328,3.669,6.764,7.251,10.305,10.714c3.823,3.739,7.831,7.289,11.748,10.933
  c1.919,1.785,3.826,3.583,5.709,5.406c0.416,0.403,0.746,0.511,1.148,0.069c0.482-0.532,0.916-1.11,1.425-1.614
  c2.063-2.038,2.001-2.315-0.07-4.103c-2.358-2.035-4.599-4.205-6.895-6.311c-2.54-2.33-5.159-4.58-7.609-7
  c-2.895-2.859-5.659-5.851-8.459-8.805c-3.254-3.433-6.6-6.787-9.699-10.355c-4.239-4.881-8.278-9.937-12.415-14.906
  c-0.46-0.552-0.571-1.022-0.147-1.67c1.365-2.088,2.615-4.254,4.028-6.308c2.68-3.897,5.498-7.7,8.156-11.613
  c2.473-3.641,4.905-7.316,7.186-11.078c3.507-5.784,6.879-11.65,10.291-17.492c2.566-4.394,5.115-8.799,7.649-13.213
  c0.592-1.031,1.093-2.114,1.637-3.173c-0.09-0.063-0.18-0.127-0.27-0.19c-1.159,0.507-2.211,1.167-2.887,2.307
  c-3.301,5.566-6.617,11.123-9.883,16.709c-3.482,5.955-7.021,11.88-10.333,17.929c-2.758,5.039-6.353,9.488-9.501,14.25
  c-2.443,3.697-4.882,7.397-7.342,11.083C70.419,132.882,69.754,133.703,69.126,134.549z"/>
<path fill="#FFFFFF" d="M127.915,126.329c-3.642,0.275-7.226,0.556-10.813,0.805c-0.582,0.04-0.812,0.24-0.755,0.83
  c0.272,2.803,0.549,5.606,0.78,8.413c0.196,2.382,0.346,4.767,0.473,7.153c0.013,0.25-0.215,0.567-0.418,0.765
  c-0.776,0.757-1.575,1.493-2.389,2.209c-0.603,0.531-1.294,0.303-1.524-0.477c-0.051-0.173-0.082-0.356-0.097-0.536
  c-0.432-5.1-0.863-10.2-1.288-15.3c-0.07-0.839-0.111-1.68-0.175-2.664c-3.91,0.627-7.751,0.975-11.6,0.474
  c-0.02-0.147-0.04-0.295-0.06-0.442c0.909-0.201,1.809-0.499,2.729-0.584c2.739-0.255,5.485-0.43,8.228-0.627
  c0.647-0.046,0.73-0.414,0.731-0.98c0.009-4.06,0.123-8.122,0.052-12.18c-0.036-2.092,0.364-3.789,2.417-4.767
  c0.532-0.253,0.981-0.678,1.665-1.164c0.121,0.576,0.275,0.962,0.272,1.348c-0.023,3.877-0.087,7.753-0.107,11.63
  c-0.008,1.544,0.094,3.088,0.09,4.632c-0.002,0.731,0.206,1.022,0.991,0.939c2.65-0.28,5.305-0.507,7.959-0.751
  c0.573-0.053,1.146-0.12,1.719-0.133C128.088,124.892,128.099,124.917,127.915,126.329z"/>
<path fill="#FFFFFF" d="M156.875,66.99c-1.635,0.863-3.016,1.581-4.381,2.329c-0.124,0.068-0.196,0.317-0.21,0.489
  c-0.283,3.386-0.707,6.769-0.792,10.161c-0.131,5.22-0.106,10.447-0.005,15.668c0.146,7.52,0.42,15.037,0.636,22.556
  c0.024,0.832,0.021,1.666,0.031,2.61c-0.999-0.073-1.847-0.084-2.679-0.208c-1.07-0.159-1.884,0.238-2.643,0.938
  c-1.015,0.936-2.159,1.747-3.085,2.761c-1.114,1.22-2.249,2.491-3.029,3.928c-1.145,2.11,0.493,4.631,2.24,5.944
  c2.424,1.82,5.207,2.204,8.135,1.98c0.27-0.021,0.544,0.009,0.855,0.016c0.017,0.258,0.037,0.44,0.041,0.622
  c0.081,3.208,0.131,6.418,0.247,9.625c0.171,4.748,0.422,9.493,0.576,14.242c0.161,4.969,0.229,9.94,0.381,14.909
  c0.044,1.451,0.183,2.891-0.626,4.22c0.044,0.087,0.087,0.174,0.131,0.261c0.404-0.064,0.86-0.029,1.201-0.21
  c1.077-0.573,2.1-1.246,3.164-1.844c0.895-0.503,1.257-1.24,1.215-2.25c-0.118-2.796-0.228-5.592-0.307-8.389
  c-0.172-6.13-0.314-12.261-0.486-18.391c-0.133-4.717-0.295-9.432-0.438-14.149c-0.021-0.698,2.188-2.387,2.853-2.193
  c0.087,0.025,0.174,0.083,0.238,0.148c0.653,0.669,1.409,1.269,1.931,2.029c1.293,1.882,2.472,3.841,3.708,5.761
  c0.708,1.101,1.488,2.158,2.146,3.288c0.733,1.26,1.303,2.616,2.056,3.862c0.827,1.368,1.757,2.677,2.687,3.979
  c1.787,2.501,3.638,4.956,5.403,7.473c1.293,1.844,2.405,3.818,3.746,5.624c2.446,3.293,4.915,6.575,7.542,9.723
  c1.784,2.137,3.695,4.228,5.836,5.991c2.509,2.066,5.251,3.887,8.045,5.558c1.708,1.021,3.765,1.407,5.71,0.504
  c2.152-0.999,4.311-2.04,6.29-3.334c1.052-0.688,1.775-1.916,2.545-2.974c0.185-0.255-0.035-0.803-0.068-1.217
  c-0.319,0.108-0.644,0.199-0.954,0.328c-0.2,0.083-0.394,0.201-0.562,0.338c-0.965,0.79-2.022,1.499-2.847,2.417
  c-0.604,0.672-1.183,1.156-2.076,1.296c-1.474,0.231-2.852-0.132-4.091-0.829c-3.393-1.91-6.748-3.913-9.402-6.826
  c-2.449-2.688-4.865-5.413-7.155-8.235c-2.115-2.606-4.095-5.328-6.041-8.065c-2.036-2.864-3.942-5.819-5.939-8.711
  c-1.876-2.715-3.878-5.346-5.679-8.109c-2.834-4.349-5.033-9.107-8.476-13.239c3.104-2.565,6.324-5.124,9.422-7.825
  c1.814-1.581,3.6-3.253,5.099-5.125c2.186-2.73,3.818-5.825,4.825-9.209c0.956-3.214,1.494-6.515,1.527-9.853
  c0.031-3.164-0.77-6.247-1.77-9.222c-1.239-3.687-2.704-7.281-5.021-10.493c-1.593-2.208-3.605-3.626-6.191-4.284
  c-2.433-0.62-4.869-1.24-7.326-1.758c-1.773-0.374-3.574-0.658-5.377-0.826c-0.871-0.081-1.775,0.196-2.747,0.322
  C156.915,69.738,156.897,68.509,156.875,66.99z M158.752,131.29c-0.673,0.308-1.117,0.511-1.757,0.803
  c-0.012-0.813-0.021-1.468-0.03-2.123c0.083-0.051,0.165-0.102,0.248-0.152C157.677,130.262,158.142,130.706,158.752,131.29z
   M152.059,130.582c-0.148,1.891-0.286,1.976-2.091,1.391l-3.9-7.736c1.202-0.173,2.571-0.161,3.689,0.252
  c2.289,0.845,2.237,0.978,2.253,3.458C152.015,128.825,152.042,129.704,152.059,130.582z M158.218,74.081
  c1.245,0.147,2.493,0.357,3.705,0.671c2.464,0.637,4.898,1.388,7.357,2.045c2.468,0.66,4.01,2.396,5.25,4.46
  c2.281,3.796,3.898,7.871,5.032,12.152c0.814,3.073,1.235,6.164,0.749,9.214c-0.195,3.785-1.141,7.301-2.732,10.556
  c-1.145,2.344-2.733,4.495-4.3,6.602c-2.336,3.141-5.786,5.072-8.677,7.615c-1.301,1.145-1.29,1.037-2.559-0.193
  c-1.48-1.435-3.106-2.721-4.583-4.159c-0.321-0.312-0.378-0.994-0.389-1.51c-0.067-3.236-0.062-6.474-0.129-9.71
  c-0.101-4.873-0.257-9.745-0.361-14.617c-0.096-4.494-0.181-8.989-0.217-13.484c-0.022-2.731,0.015-5.465,0.111-8.195
  C156.526,74.122,156.808,73.914,158.218,74.081z"/>
<circle fill="none" stroke="#FFFFFF" stroke-miterlimit="10" cx="128" cy="128.188" r="117.829"/>
</svg>
